<?xml version="1.0" encoding="UTF-8" standalone="no"?>
<!-- Created with Inkscape (http://www.inkscape.org/) -->

<svg
   width="79.90226mm"
   height="11.819789mm"
   viewBox="0 0 79.90226 11.819789"
   version="1.1"
   id="svg1"
   xml:space="preserve"
   xmlns="http://www.w3.org/2000/svg"
   xmlns:svg="http://www.w3.org/2000/svg"><defs
     id="defs1" /><g
     id="layer1"
     transform="translate(555.23426,-281.59823)"><g
       id="g3512"
       transform="translate(100.40804,9.645038)"
       style="fill:#03a3b5;fill-opacity:1"><text
         x="-645.20251"
         y="283.51779"
         style="font-weight:900;font-size:15.0124px;font-family:ClementePDao-Heavy, ClementePDao;clip-rule:evenodd;fill:#03a3b5;fill-opacity:1;fill-rule:evenodd;stroke-width:0.938273;stroke-linecap:square;stroke-linejoin:round;stroke-miterlimit:1.5"
         id="text3497">E<tspan
   x="-636.84058 -626.42194"
   y="283.51779 283.51779"
   id="tspan3497"
   style="fill:#03a3b5;fill-opacity:1;stroke-width:0.938273">DO</tspan>SSAH</text><g
         id="g3511"
         transform="matrix(0.74063676,0,0,0.74063676,-182.09024,129.59487)"
         style="fill:#03a3b5;fill-opacity:1"><ellipse
           cx="-356.22531"
           cy="560.43036"
           style="clip-rule:evenodd;fill:#03a3b5;fill-opacity:1;fill-rule:evenodd;stroke-width:0.00345966;stroke-linecap:square;stroke-linejoin:round;stroke-miterlimit:1.5"
           id="ellipse3497"
           transform="matrix(0.24551807,-0.96939202,-0.96936575,-0.24562174,0,0)"
           rx="0.1660663"
           ry="0.16607475" /><ellipse
           cx="-358.31241"
           cy="568.66748"
           style="clip-rule:evenodd;fill:#03a3b5;fill-opacity:1;fill-rule:evenodd;stroke-width:0.00345966;stroke-linecap:square;stroke-linejoin:round;stroke-miterlimit:1.5"
           id="ellipse3498"
           transform="matrix(0.24551807,-0.96939202,-0.96936575,-0.24562174,0,0)"
           rx="0.1660663"
           ry="0.16607475" /><g
           transform="matrix(0.16306376,0.04093434,-0.04093443,0.16306379,-1094.1036,20.330906)"
           id="g3506"
           style="clip-rule:evenodd;fill:#03a3b5;fill-opacity:1;fill-rule:evenodd;stroke-linecap:square;stroke-linejoin:round;stroke-miterlimit:1.5">
                            <g
   transform="matrix(0,0.165783,-0.165783,0,3043.5389,237.47512)"
   id="g3498"
   style="fill:#03a3b5;fill-opacity:1">
                                <circle
   cx="554.00702"
   cy="746.76898"
   r="48.001999"
   style="fill:#03a3b5;fill-opacity:1"
   id="circle3498" />
                            </g>
                            <g
   transform="matrix(0,0.10429,-0.10429,0,3014.6862,318.11001)"
   id="g3499"
   style="fill:#03a3b5;fill-opacity:1">
                                <circle
   cx="554.00702"
   cy="746.76898"
   r="48.001999"
   style="fill:#03a3b5;fill-opacity:1"
   id="circle3499" />
                            </g>
                            <g
   transform="matrix(0,0.155361,-0.155361,0,3012.3574,287.12438)"
   id="g3500"
   style="fill:#03a3b5;fill-opacity:1">
                                <circle
   cx="554.00702"
   cy="746.76898"
   r="48.001999"
   style="fill:#03a3b5;fill-opacity:1"
   id="circle3500" />
                            </g>
                            <g
   transform="matrix(0,0.123629,-0.123629,0,2983.7899,288.96406)"
   id="g3501"
   style="fill:#03a3b5;fill-opacity:1">
                                <circle
   cx="554.00702"
   cy="746.76898"
   r="48.001999"
   style="fill:#03a3b5;fill-opacity:1"
   id="circle3501" />
                            </g>
                            <g
   transform="matrix(0,0.044678,-0.044678,0,2965.892,309.40476)"
   id="g3502"
   style="fill:#03a3b5;fill-opacity:1">
                                <circle
   cx="554.00702"
   cy="746.76898"
   r="48.001999"
   style="fill:#03a3b5;fill-opacity:1"
   id="circle3502" />
                            </g>
                            <g
   transform="matrix(0,0.193541,-0.193541,0,3089.1067,253.09183)"
   id="g3503"
   style="fill:#03a3b5;fill-opacity:1">
                                <circle
   cx="554.00702"
   cy="746.76898"
   r="48.001999"
   style="fill:#03a3b5;fill-opacity:1"
   id="circle3503" />
                            </g>
                            <g
   transform="matrix(0,0.122734,-0.122734,0,3032.9785,274.08318)"
   id="g3504"
   style="fill:#03a3b5;fill-opacity:1">
                                <circle
   cx="554.00702"
   cy="746.76898"
   r="48.001999"
   style="fill:#03a3b5;fill-opacity:1"
   id="circle3504" />
                            </g>
                            <g
   transform="matrix(0,0.22012,-0.22012,0,3063.2169,216.64443)"
   id="g3505"
   style="fill:#03a3b5;fill-opacity:1">
                                <circle
   cx="554.00702"
   cy="746.76898"
   r="48.001999"
   style="fill:#03a3b5;fill-opacity:1"
   id="circle3505" />
                            </g>
                        </g><g
           transform="matrix(0.01033699,-0.04080901,-0.05267772,-0.01334324,-603.69219,237.41473)"
           id="g3507"
           style="clip-rule:evenodd;fill:#03a3b5;fill-opacity:1;fill-rule:evenodd;stroke-linecap:square;stroke-linejoin:round;stroke-miterlimit:1.5">
                            <path
   style="baseline-shift:baseline;clip-rule:nonzero;display:inline;overflow:visible;opacity:1;vector-effect:none;fill:#03a3b5;fill-opacity:1;fill-rule:nonzero;stroke-linecap:butt;stroke-linejoin:miter;enable-background:accumulate;stop-color:#000000;stop-opacity:1"
   d="m 526.1543,614.29102 -0.56446,1.72656 -11.27539,34.48633 a 1.8151816,1.8151816 0 0 0 0.83008,2.14257 l 8.3457,4.73047 18.71875,20.89453 a 1.8151816,1.8151816 0 0 0 1.34961,0.60547 l 211.71875,0.32617 1.81446,0.004 0.006,-3.63086 -1.81446,-0.002 -210.91015,-0.32617 -18.37891,-20.51563 a 1.8151816,1.8151816 0 0 0 -0.45703,-0.36719 l -7.3125,-4.14453 10.81641,-33.07617 0.5625,-1.72461 z"
   id="path3506" />
                        </g><g
           transform="matrix(0.01033699,-0.04080901,0.05267772,0.01334324,-677.31939,218.76486)"
           id="g3508"
           style="clip-rule:evenodd;fill:#03a3b5;fill-opacity:1;fill-rule:evenodd;stroke-linecap:square;stroke-linejoin:round;stroke-miterlimit:1.5">
                            <path
   style="baseline-shift:baseline;clip-rule:nonzero;display:inline;overflow:visible;opacity:1;vector-effect:none;fill:#03a3b5;fill-opacity:1;fill-rule:nonzero;stroke-linecap:butt;stroke-linejoin:miter;enable-background:accumulate;stop-color:#000000;stop-opacity:1"
   d="m 479.69336,629.63281 -3.44922,1.13281 0.56641,1.72266 5.63281,17.1582 a 1.8151816,1.8151816 0 0 0 1.43945,1.22657 l 27.58789,4.40234 30.65039,24.12695 a 1.8151816,1.8151816 0 0 0 1.12891,0.39063 l 208.66016,-0.58985 1.81445,-0.004 -0.01,-3.63086 -1.81445,0.006 -208.0293,0.58594 -30.52539,-24.02735 a 1.8151816,1.8151816 0 0 0 -0.83593,-0.36719 l -26.9629,-4.30273 -5.2871,-16.10547 z"
   id="path3507" />
                        </g><path
           d="m -633.86932,207.75889 h 0.19379 l -0.0408,-0.50229 a 0.09863945,0.07641524 14.213857 0 0 -0.006,-0.0232 l -0.41651,-0.89711 2.15439,-8.58087 0.0186,-0.0739 -0.1912,-0.0481 -0.0186,0.0739 -2.15956,8.60206 a 0.09863945,0.07641524 14.213857 0 0 0.005,0.0429 l 0.42116,0.90744 z"
           style="baseline-shift:baseline;display:inline;overflow:visible;opacity:1;vector-effect:none;fill:#03a3b5;fill-opacity:1;enable-background:accumulate;stop-color:#000000;stop-opacity:1"
           id="path3508" /><path
           d="m -634.96693,207.75889 h 0.19534 l 0.0289,-1.06401 2.46445,-9.62784 0.0186,-0.0739 -0.1912,-0.0491 -0.0186,0.0744 -2.46599,9.63403 a 0.09863945,0.07641524 14.213857 0 0 -0.002,0.0129 z"
           style="baseline-shift:baseline;display:inline;overflow:visible;opacity:1;vector-effect:none;fill:#03a3b5;fill-opacity:1;enable-background:accumulate;stop-color:#000000;stop-opacity:1"
           id="path3509" /><path
           d="m -632.8022,196.34771 -0.0191,0.0739 -2.48926,9.77098 -0.67437,0.99942 a 0.09863945,0.07641524 14.213857 0 0 -0.009,0.0196 l -0.12816,0.54725 h 0.20258 l 0.11523,-0.48989 0.67387,-0.9989 a 0.09863945,0.07641524 14.213857 0 0 0.008,-0.0186 l 2.49184,-9.78131 0.0191,-0.0739 z"
           style="baseline-shift:baseline;display:inline;overflow:visible;opacity:1;vector-effect:none;fill:#03a3b5;fill-opacity:1;enable-background:accumulate;stop-color:#000000;stop-opacity:1"
           id="path3510" /><path
           d="m -637.20503,207.75889 h 0.20825 l 0.2713,-0.78186 1.17668,-0.99167 a 0.09863945,0.07641524 14.213857 0 0 0.0212,-0.0331 l 2.36885,-9.30279 0.0186,-0.0739 -0.1912,-0.0491 -0.0186,0.0744 -2.36368,9.28367 -1.17512,0.99012 a 0.09863945,0.07641524 14.213857 0 0 -0.0196,0.0284 z"
           style="baseline-shift:baseline;display:inline;overflow:visible;opacity:1;vector-effect:none;fill:#03a3b5;fill-opacity:1;enable-background:accumulate;stop-color:#000000;stop-opacity:1"
           id="path3511" /></g></g></g></svg>
