<?xml version="1.0" encoding="UTF-8" standalone="no"?>
<!DOCTYPE svg PUBLIC "-//W3C//DTD SVG 1.1//EN" "http://www.w3.org/Graphics/SVG/1.1/DTD/svg11.dtd">
<svg width="100%" height="100%" viewBox="0 0 241 51" version="1.1" xmlns="http://www.w3.org/2000/svg" xmlns:xlink="http://www.w3.org/1999/xlink" xml:space="preserve" xmlns:serif="http://www.serif.com/" style="fill-rule:evenodd;clip-rule:evenodd;stroke-linecap:square;stroke-linejoin:round;stroke-miterlimit:1.5;">
    <g transform="matrix(1,0,0,1,-4266.157925,-5480.001564)">
        <g transform="matrix(1.856767,0,0,9.677861,-2299.993676,0)">
            <g transform="matrix(0.04305,0,0,0.010629,3414.201692,564.902856)">
                <rect x="2837.074" y="125.887" width="615.362" height="486.047" style="fill:white;"/>
            </g>
        </g>
        <g transform="matrix(1.856767,0,0,9.677861,-2299.993676,0)">
            <g transform="matrix(0.584666,0,0,0.115938,2618.310599,483.951144)">
                <g>
                    <g transform="matrix(3.818246,0,0,3.694242,-2678.106203,-214.877433)">
                        <g transform="matrix(16,0,0,16,1171.520222,262.088106)">
                        </g>
                        <text x="1126.064px" y="262.088px" style="font-family:'ClementePDao-Heavy', 'ClementePDao';font-weight:900;font-size:16px;fill:white;">ASSIA</text>
                    </g>
                </g>
            </g>
        </g>
        <g transform="matrix(1.856767,0,0,9.677861,-2299.993676,0)">
            <g transform="matrix(0.465278,0,0,0.151683,2336.375803,510.203552)">
                <g transform="matrix(1.001316,0,0,1.001316,36.405754,-0.490573)">
                    <g transform="matrix(0.002444,-0.005679,-0.00965,-0.001439,2580.859883,403.096005)">
                        <circle cx="554.007" cy="746.769" r="48.002" style="fill:rgb(255,146,92);"/>
                    </g>
                    <g transform="matrix(0.002444,-0.005679,-0.00965,-0.001439,2556.410258,403.096005)">
                        <circle cx="554.007" cy="746.769" r="48.002" style="fill:rgb(255,146,92);"/>
                    </g>
                    <g transform="matrix(1.005828,0,0,1.005828,-54.835621,-2.19343)">
                        <g transform="matrix(0.466476,0.068915,-0.117101,0.274526,1289.010225,83.353274)">
                            <g transform="matrix(-0,0.165783,-0.165783,-0,3043.538917,237.475117)">
                                <circle cx="554.007" cy="746.769" r="48.002" style="fill:rgb(255,146,92);"/>
                            </g>
                            <g transform="matrix(-0,0.10429,-0.10429,-0,3014.68619,318.110014)">
                                <circle cx="554.007" cy="746.769" r="48.002" style="fill:rgb(255,146,92);"/>
                            </g>
                            <g transform="matrix(0,0.155361,-0.155361,0,3012.357443,287.124383)">
                                <circle cx="554.007" cy="746.769" r="48.002" style="fill:rgb(255,146,92);"/>
                            </g>
                            <g transform="matrix(0,0.123629,-0.123629,-0,2983.789938,288.964063)">
                                <circle cx="554.007" cy="746.769" r="48.002" style="fill:rgb(255,146,92);"/>
                            </g>
                            <g transform="matrix(0,0.044678,-0.044678,0,2965.891998,309.404755)">
                                <circle cx="554.007" cy="746.769" r="48.002" style="fill:rgb(255,146,92);"/>
                            </g>
                            <g transform="matrix(0,0.193541,-0.193541,-0,3089.106687,253.091833)">
                                <circle cx="554.007" cy="746.769" r="48.002" style="fill:rgb(255,146,92);"/>
                            </g>
                            <g transform="matrix(0,0.122734,-0.122734,0,3032.97848,274.083178)">
                                <circle cx="554.007" cy="746.769" r="48.002" style="fill:rgb(255,146,92);"/>
                            </g>
                            <g transform="matrix(-0,0.22012,-0.22012,-0,3063.216878,216.644429)">
                                <circle cx="554.007" cy="746.769" r="48.002" style="fill:rgb(255,146,92);"/>
                            </g>
                        </g>
                        <g transform="matrix(0.029571,-0.068704,-0.150695,-0.022464,2691.928706,448.824686)">
                            <path d="M755.28,677.389L543.561,677.061L524.643,655.944L516.039,651.067L527.315,616.581" style="fill:none;stroke:rgb(255,146,92);stroke-width:5.51px;"/>
                        </g>
                        <g transform="matrix(0.029571,-0.068704,0.150695,0.022464,2481.303632,417.4267)">
                            <path d="M751.905,677.389L543.244,677.977L512.223,653.558L484.168,649.081L478.535,631.923" style="fill:none;stroke:rgb(255,146,92);stroke-width:5.51px;"/>
                        </g>
                        <g transform="matrix(0.029571,-0.068704,-0.150695,-0.022464,2691.928706,448.824686)">
                            <path d="M748.206,685.72L537.535,685.378L518.864,673.619L498.298,668.179" style="fill:none;stroke:rgb(255,146,92);stroke-width:5.51px;"/>
                        </g>
                        <g transform="matrix(0.029571,-0.068704,-0.150695,-0.022464,2691.928706,448.824686)">
                            <path d="M762.354,694.074L526.126,694.533L491.644,688.53" style="fill:none;stroke:rgb(255,146,92);stroke-width:5.51px;"/>
                        </g>
                        <g transform="matrix(0.029571,-0.068704,-0.150695,-0.022464,2691.928706,448.824686)">
                            <path d="M774.043,703.044L534.28,703.297L507.1,710.877L484.321,710.571" style="fill:none;stroke:rgb(255,146,92);stroke-width:5.51px;"/>
                        </g>
                        <g transform="matrix(0.029571,-0.068704,-0.150695,-0.022464,2691.648034,448.782846)">
                            <path d="M766.834,709.804L538.798,710.023L508.734,726.733L477.873,728.782" style="fill:none;stroke:rgb(255,146,92);stroke-width:5.51px;"/>
                        </g>
                        <g transform="matrix(4.091554,0,0,0.555456,-4553.355769,-49.852177)">
                            <rect x="1746.099" y="807.895" width="5.562" height="2.097" style="fill:white;"/>
                        </g>
                    </g>
                </g>
            </g>
        </g>
    </g>
</svg>
